<svg version="1.0" xmlns="http://www.w3.org/2000/svg" width="605.000000pt" height="641.000000pt" viewBox="0 0 605.000000 641.000000" preserveAspectRatio="xMidYMid meet">

<g transform="translate(0.000000,641.000000) scale(0.100000,-0.100000)" fill="#dc143c" stroke="none">
<path d="M1530 5587 l-1485 -813 -3 -1550 -2 -1550 1487 -815 c818 -448 1492 -814 1498 -814 6 0 680 366 1498 814 l1487 815 -2 1550 -3 1550 -1485 813 c-816 447 -1489 813 -1495 813 -6 0 -679 -366 -1495 -813z m1690 -393 c96 -24 236 -95 312 -158 189 -156 289 -370 289 -616 0 -274 -127 -514 -354 -669 -216 -148 -527 -173 -771 -62 -202 91 -365 275 -435 490 -146 446 149 937 616 1026 94 18 249 13 343 -11z m-793 -1598 c23 -8 77 -38 119 -67 133 -89 218 -109 479 -109 261 0 346 20 479 109 98 67 140 81 252 88 81 5 97 3 137 -16 222 -107 482 -677 562 -1230 24 -163 17 -399 -15 -496 -28 -87 -91 -156 -159 -175 -77 -21 -234 7 -319 56 -23 14 -92 72 -153 130 -128 121 -173 153 -272 199 -137 63 -270 85 -512 85 -242 0 -375 -22 -512 -85 -99 -46 -144 -78 -272 -199 -61 -58 -130 -116 -153 -130 -85 -49 -242 -77 -319 -56 -68 19 -131 88 -159 175 -32 97 -39 333 -15 496 79 549 337 1116 558 1229 37 19 54 21 137 16 52 -2 114 -11 137 -20z" fill="#dc143c"/>
<path d="M2950 4891 c-116 -38 -196 -128 -215 -239 l-7 -43 63 3 c61 3 63 4 69 33 16 77 84 129 166 129 95 0 166 -72 166 -169 0 -59 -19 -90 -100 -162 -77 -69 -118 -139 -124 -208 l-3 -40 60 0 c58 0 59 1 65 30 12 55 40 94 96 136 123 90 164 232 106 363 -46 102 -140 167 -252 172 -36 2 -76 0 -90 -5z" fill="#dc143c"/>
<path d="M2990 4097 c-53 -27 -63 -110 -17 -142 12 -8 38 -15 58 -15 46 0 79 36 79 85 0 57 -69 99 -120 72z" fill="#dc143c"/>
<path d="M3609 3071 c-56 -56 -29 -153 47 -167 89 -17 151 66 109 146 -31 59 -107 69 -156 21z" fill="#dc143c"/>
<path d="M2329 3052 c-19 -16 -23 -31 -27 -105 l-5 -87 -78 0 c-88 0 -119 -17 -119 -65 0 -48 31 -65 119 -65 l78 0 5 -87 c4 -74 8 -89 27 -105 31 -25 57 -23 86 7 22 22 25 32 25 105 l0 80 83 0 c95 0 117 13 117 67 0 50 -25 63 -118 63 l-82 0 0 80 c0 73 -3 83 -25 105 -29 30 -55 32 -86 7z" fill="#dc143c"/>
<path d="M3435 2891 c-86 -36 -78 -173 12 -196 35 -8 88 11 107 40 20 31 20 89 0 120 -8 13 -29 28 -46 34 -36 13 -45 13 -73 2z" fill="#dc143c"/>
<path d="M3843 2886 c-32 -15 -63 -60 -63 -93 0 -34 37 -81 73 -92 79 -26 152 47 127 125 -19 57 -81 84 -137 60z" fill="#dc143c"/>
<path d="M3634 2680 c-33 -13 -54 -50 -54 -93 0 -101 139 -136 185 -47 46 90 -37 178 -131 140z" fill="#dc143c"/>
</g>
</svg>