<svg version="1.0" xmlns="http://www.w3.org/2000/svg" width="1851.000000pt" height="1104.000000pt" viewBox="0 0 1851.000000 1104.000000" preserveAspectRatio="xMidYMid meet">

<g transform="translate(0.000000,1104.000000) scale(0.100000,-0.100000)" fill="#dc143c" stroke="none">
<path d="M7760 10216 l-1485 -814 -2 -1549 -3 -1548 1494 -818 1495 -818 1473 807 c810 443 1483 812 1496 820 l22 14 0 1544 0 1543 -1491 817 c-819 449 -1496 816 -1502 816 -7 -1 -680 -367 -1497 -814z m1710 -396 c41 -12 115 -42 165 -68 73 -37 108 -64 185 -142 78 -77 105 -112 142 -185 81 -158 113 -329 89 -485 -49 -318 -261 -564 -571 -662 -65 -20 -95 -23 -220 -23 -167 1 -227 13 -356 76 -151 74 -289 212 -363 363 -63 129 -75 189 -76 356 0 125 3 155 23 220 95 302 336 516 642 569 83 15 253 5 340 -19z m-803 -1598 c29 -11 75 -36 102 -56 121 -89 231 -115 486 -116 251 0 349 20 462 96 123 83 186 104 306 104 81 -1 133 -25 202 -93 300 -301 562 -1220 459 -1615 -46 -175 -133 -236 -306 -213 -129 17 -202 58 -348 196 -180 170 -289 226 -511 261 -146 23 -489 15 -604 -14 -187 -48 -265 -93 -433 -252 -160 -152 -249 -194 -412 -194 -85 0 -120 14 -167 68 -120 135 -122 497 -8 934 114 432 307 792 480 894 48 28 54 29 145 25 63 -3 113 -11 147 -25z" fill="#dc143c"/>
<path d="M9173 9516 c-112 -35 -180 -114 -202 -233 l-8 -43 63 0 c58 0 64 2 64 20 0 53 62 121 128 141 46 13 105 0 147 -33 32 -25 64 -91 65 -132 0 -48 -38 -114 -85 -146 -80 -55 -132 -136 -142 -221 l-6 -49 60 0 60 0 6 38 c8 47 39 89 104 140 62 50 91 89 109 149 34 112 9 210 -76 295 -82 81 -181 107 -287 74z" fill="#dc143c"/>
<path d="M9224 8726 c-35 -15 -44 -32 -44 -80 0 -61 82 -100 132 -62 47 35 40 114 -13 141 -34 18 -36 18 -75 1z" fill="#dc143c"/>
<path d="M9847 7710 c-55 -43 -42 -143 22 -170 71 -29 141 17 141 92 0 82 -98 129 -163 78z" fill="#dc143c"/>
<path d="M8575 7688 c-32 -18 -35 -28 -35 -115 l0 -83 -82 0 c-46 0 -88 -4 -94 -8 -20 -13 -35 -52 -29 -72 13 -42 33 -50 121 -50 l84 0 0 -82 c0 -89 3 -99 37 -117 31 -16 50 -14 73 9 17 17 20 33 20 105 l0 85 85 0 c94 0 125 16 125 65 0 49 -31 65 -125 65 l-85 0 0 85 c0 72 -3 88 -20 105 -22 22 -45 25 -75 8z" fill="#dc143c"/>
<path d="M9660 7513 c-23 -12 -39 -30 -48 -55 -13 -33 -12 -41 4 -75 39 -79 146 -77 180 2 37 89 -51 171 -136 128z" fill="#dc143c"/>
<path d="M10080 7519 c-56 -22 -79 -101 -44 -154 32 -49 113 -54 156 -8 33 35 32 104 -2 137 -29 28 -75 39 -110 25z" fill="#dc143c"/>
<path d="M9859 7306 c-56 -32 -63 -126 -12 -166 93 -73 218 55 140 145 -27 32 -90 42 -128 21z" fill="#dc143c"/>
<path d="M6024 4110 c-102 -23 -161 -118 -135 -216 18 -67 96 -124 168 -124 47 0 120 36 146 71 44 60 40 159 -9 211 -49 51 -110 72 -170 58z" fill="#dc143c"/>
<path d="M13780 4111 c-85 -26 -128 -73 -137 -150 -7 -63 21 -126 74 -161 30 -20 51 -25 99 -25 108 0 174 65 174 170 0 80 -50 141 -135 164 -45 12 -41 12 -75 2z" fill="#dc143c"/>
<path d="M2090 4044 c-105 -22 -186 -68 -271 -153 -65 -65 -85 -93 -133 -191 -100 -204 -132 -379 -123 -675 8 -273 48 -449 145 -639 94 -183 240 -288 448 -321 37 -6 44 -11 60 -48 37 -81 111 -183 186 -253 133 -123 252 -164 484 -164 l124 0 0 113 0 114 -102 6 c-214 13 -329 64 -422 187 l-48 64 58 27 c207 93 343 305 400 624 24 137 30 424 10 571 -45 344 -185 592 -390 692 -117 58 -288 76 -426 46z m268 -250 c124 -61 209 -217 248 -450 19 -117 22 -428 5 -544 -30 -201 -81 -322 -176 -417 -50 -50 -72 -65 -120 -78 -207 -61 -387 123 -440 450 -50 302 -16 683 76 856 45 84 114 157 174 185 72 34 163 33 233 -2z" fill="#dc143c"/>
<path d="M11204 3963 c9 -53 216 -1818 216 -1837 0 -14 19 -16 140 -16 77 0 140 3 140 8 -1 21 214 1238 219 1244 4 4 60 -268 125 -605 64 -336 120 -620 122 -630 5 -16 18 -17 142 -15 l137 3 111 900 c61 495 113 919 116 943 l6 42 -124 0 c-109 0 -124 -2 -124 -17 0 -19 -128 -1091 -133 -1113 -6 -23 -9 -8 -118 560 -55 289 -103 535 -106 548 -5 21 -8 22 -139 22 -74 0 -134 -3 -134 -6 0 -15 -191 -1088 -194 -1091 -5 -6 -11 37 -71 577 -31 272 -58 501 -60 508 -3 9 -40 12 -141 12 l-136 0 6 -37z" fill="#dc143c"/>
<path d="M3592 2953 c5 -600 6 -610 73 -709 83 -120 249 -188 403 -164 134 22 235 78 353 195 l69 69 0 -117 0 -117 135 0 135 0 0 690 0 690 -135 0 -135 0 0 -398 0 -397 -47 -70 c-139 -209 -359 -339 -471 -281 -39 21 -81 68 -94 107 -8 23 -13 189 -16 537 l-3 502 -135 0 -135 0 3 -537z" fill="#dc143c"/>
<path d="M5550 3370 l0 -120 185 0 185 0 0 -570 0 -570 325 0 325 0 0 120 0 120 -185 0 -185 0 0 570 0 570 -325 0 -325 0 0 -120z" fill="#dc143c"/>
<path d="M7480 3370 l0 -120 384 -2 385 -3 -394 -445 -394 -445 -1 -122 0 -123 600 0 600 0 0 130 0 130 -410 2 -409 3 399 449 400 449 0 108 0 109 -580 0 -580 0 0 -120z" fill="#dc143c"/>
<path d="M13300 3370 l0 -120 190 0 190 0 0 -570 0 -570 325 0 325 0 0 120 0 120 -185 0 -185 0 -2 568 -3 567 -327 3 -328 2 0 -120z" fill="#dc143c"/>
<path d="M15232 3373 l3 -118 386 -5 385 -5 -398 -450 -398 -450 0 -117 0 -118 605 0 605 0 0 130 0 130 -411 2 -411 3 396 445 396 445 0 112 0 113 -580 0 -581 0 3 -117z" fill="#dc143c"/>
</g>
</svg>